<svg xmlns="http://www.w3.org/2000/svg" viewBox="0 0 606 424" role="img" aria-label="WAGD logo: keyboard keys W, A, G, D">
  <rect width="606" height="424" rx="20" fill="#FFB629"/>
  <g>
    <rect x="173" y="36" width="170" height="170" rx="32" fill="#0d0d0d"/>
    <rect x="202" y="60" width="112" height="112" rx="18" fill="#ffffff"/>
    <path transform="translate(211.5 151.8) scale(0.05 -0.05)" d="M1855 1388 1621 2 1053 -10 931 708 809 42 241 22 5 1388 501 1432 601 602 735 1432H1125L1281 592L1361 1432Z" fill="#0d0d0d"/>
  </g>
  <g>
    <rect x="36" y="218" width="170" height="170" rx="32" fill="#0d0d0d"/>
    <rect x="65" y="242" width="112" height="112" rx="18" fill="#ffffff"/>
    <path transform="translate(88.9 333.8) scale(0.05 -0.05)" d="M1312 86 816 22 756 248H528L478 22L-32 72L366 1404L922 1432ZM720 554 644 902 570 554Z" fill="#0d0d0d"/>
  </g>
  <g>
    <rect x="218" y="218" width="170" height="170" rx="32" fill="#0d0d0d"/>
    <rect x="247" y="242" width="112" height="112" rx="18" fill="#ffffff"/>
    <path transform="translate(270.9 333.8) scale(0.05 -0.05)" d="M1258 204Q1211 145 1142 101Q1073 57 994 28Q915 -1 832 -15.5Q749 -30 674 -30Q529 -30 407 22Q285 74 196.5 165.5Q108 257 58 381Q8 505 8 648Q8 757 33 861.5Q58 966 104.5 1058.5Q151 1151 218 1228.5Q285 1306 370 1362Q455 1418 556 1449Q657 1480 772 1480Q815 1480 864 1476.5Q913 1473 961.5 1464.5Q1010 1456 1056 1441Q1102 1426 1140 1404L1112 1022Q1056 1043 996.5 1050.5Q937 1058 880 1058Q800 1058 730.5 1033.5Q661 1009 609.5 963Q558 917 528 851Q498 785 498 702Q498 650 512 601.5Q526 553 554.5 515.5Q583 478 625.5 455Q668 432 724 432Q762 432 802.5 442Q843 452 872 476L876 554L636 558L648 858Q797 863 946 866.5Q1095 870 1246 876Z" fill="#0d0d0d"/>
  </g>
  <g>
    <rect x="400" y="218" width="170" height="170" rx="32" fill="#0d0d0d"/>
    <rect x="429" y="242" width="112" height="112" rx="18" fill="#ffffff"/>
    <path transform="translate(455.2 333.8) scale(0.05 -0.05)" d="M1184 794Q1184 654 1148 541.5Q1112 429 1047.5 341.5Q983 254 894 191Q805 128 699 87.5Q593 47 473.5 27.5Q354 8 228 8Q181 8 136 10.5Q91 13 44 18L72 1360Q182 1395 298.5 1409.5Q415 1424 530 1424Q673 1424 793 1381Q913 1338 1000 1257Q1087 1176 1135.5 1059Q1184 942 1184 794ZM774 730Q775 784 762.5 834Q750 884 721.5 922.5Q693 961 649 984.5Q605 1008 544 1010L504 390Q564 399 613 429.5Q662 460 697.5 504.5Q733 549 752.5 603.5Q772 658 774 716Z" fill="#0d0d0d"/>
  </g>
</svg>